<svg xmlns="http://www.w3.org/2000/svg" viewBox="0 0 6135.0 1106.0" width="6135" height="1106">
  <g transform="translate(119.00,770.00)" fill="#FAF7F0">
    <path d="M763 -592C748 -605 740 -608 723 -608C643 -608 582 -528 450 -253C459 -306 461 -330 461 -363C461 -494 408 -576 323 -576C203 -576 68 -450 68 -336C68 -306 75 -276 89 -245L165 -293C150 -340 145 -364 145 -394C145 -464 193 -519 254 -519C343 -519 398 -418 398 -255C398 -204 392 -165 379 -128C360 -77 337 -31 310 7C273 59 225 80 139 80C124 80 109 79 66 76L31 150C51 152 60 152 77 152C168 152 213 143 255 115C304 83 358 -1 458 -202C562 -411 574 -434 601 -473C631 -515 654 -531 685 -531C701 -531 712 -528 735 -519Z M1009 -319C1009 -373 972 -411 919 -411C879 -411 815 -382 756 -338C692 -290 647 -186 647 -87C647 -26 681 13 734 13C762 13 790 3 836 -21C886 -49 919 -74 937 -98C977 -152 1009 -250 1009 -319ZM932 -265C932 -223 918 -171 893 -122C865 -65 829 -34 791 -34C750 -34 724 -71 724 -128C724 -244 797 -364 867 -364C907 -364 932 -325 932 -265Z M1267 -107V-129C1253 -121 1244 -115 1240 -113C1168 -68 1160 -64 1146 -64C1128 -64 1128 -88 1128 -108C1128 -126 1173 -320 1210 -461C1249 -608 1258 -626 1302 -626C1315 -626 1325 -625 1351 -619L1394 -672C1373 -677 1362 -678 1349 -678C1309 -678 1277 -662 1229 -619C1185 -579 1174 -564 1161 -528C1153 -504 1131 -423 1121 -379L1049 -66C1048 -60 1047 -54 1047 -48C1047 -17 1059 13 1089 13C1099 13 1141 -16 1267 -107Z M1691 -99V-128C1672 -116 1606 -69 1590 -69C1580 -69 1578 -82 1578 -91C1578 -128 1623 -311 1635 -360C1639 -366 1659 -391 1664 -396C1630 -405 1586 -411 1546 -411C1479 -411 1472 -404 1426 -372C1399 -353 1374 -342 1355 -312C1305 -234 1286 -133 1286 -70C1286 -40 1294 14 1329 14C1366 14 1456 -61 1508 -97L1501 -52C1495 -18 1489 13 1513 13C1538 13 1662 -78 1691 -99ZM1514 -136C1484 -114 1418 -60 1392 -60C1366 -60 1361 -87 1361 -111C1361 -175 1381 -248 1407 -299C1424 -334 1440 -363 1485 -363C1510 -363 1541 -356 1566 -351Z M2331 -99V-128C2312 -116 2246 -69 2230 -69C2220 -69 2218 -82 2218 -91C2218 -128 2263 -311 2275 -360C2279 -366 2299 -391 2304 -396C2270 -405 2226 -411 2186 -411C2119 -411 2112 -404 2066 -372C2039 -353 2014 -342 1995 -312C1945 -234 1926 -133 1926 -70C1926 -40 1934 14 1969 14C2006 14 2096 -61 2148 -97L2141 -52C2135 -18 2129 13 2153 13C2178 13 2302 -78 2331 -99ZM2154 -136C2124 -114 2058 -60 2032 -60C2006 -60 2001 -87 2001 -111C2001 -175 2021 -248 2047 -299C2064 -334 2080 -363 2125 -363C2150 -363 2181 -356 2206 -351Z M2568 -90 2572 -120C2523 -90 2474 -65 2465 -65C2454 -65 2446 -77 2446 -93C2446 -129 2458 -167 2467 -205L2498 -332C2503 -353 2511 -385 2511 -397C2511 -405 2508 -410 2499 -410C2476 -410 2372 -342 2342 -322L2341 -293C2364 -306 2400 -330 2414 -330C2425 -330 2426 -319 2426 -310C2426 -288 2404 -214 2393 -168C2382 -122 2364 -75 2364 -30C2364 -4 2374 12 2390 12C2407 12 2425 3 2483 -35C2499 -46 2507 -52 2568 -90ZM2575 -554C2557 -583 2556 -586 2546 -609C2545 -613 2543 -618 2541 -622C2535 -617 2531 -614 2527 -611C2500 -588 2498 -587 2472 -569C2480 -545 2487 -533 2510 -499L2543 -529C2549 -533 2552 -536 2575 -554Z M3066 -23 2973 -30 3103 -543 3161 -550 3197 -573H2966L2932 -550L3024 -543L2894 -31L2835 -23L2800 0H3032Z M3620 -128C3520 -71 3516 -69 3506 -69C3496 -69 3490 -80 3490 -96C3490 -117 3497 -150 3516 -219C3563 -387 3563 -387 3563 -394C3563 -405 3556 -411 3543 -411C3528 -411 3506 -402 3470 -379L3333 -294C3342 -327 3357 -390 3357 -398C3357 -405 3351 -411 3344 -411C3333 -411 3261 -374 3187 -330L3181 -304C3245 -333 3249 -334 3258 -334C3265 -334 3270 -328 3270 -320C3270 -299 3251 -216 3226 -125L3203 -44L3189 10L3264 -19L3323 -254C3448 -333 3451 -334 3465 -334C3472 -334 3476 -329 3476 -321C3476 -306 3468 -268 3439 -154C3417 -65 3413 -48 3413 -29C3413 -15 3417 -2 3428 16C3474 -5 3543 -48 3613 -100Z M4101 -674C4081 -679 4073 -680 4053 -680C3993 -680 3951 -658 3884 -593C3828 -539 3815 -509 3776 -343H3692C3686 -339 3680 -335 3678 -334L3656 -322C3652 -320 3644 -316 3636 -311H3768L3727 -136C3667 139 3644 184 3559 184C3545 184 3533 183 3506 179C3496 194 3493 199 3486 208C3478 219 3469 230 3461 242C3483 245 3494 246 3510 246C3543 246 3569 241 3585 232C3614 216 3665 167 3692 132C3723 90 3759 4 3782 -87L3841 -311H3930L3971 -343L3908 -344L3849 -343C3914 -597 3929 -628 3988 -628C4005 -628 4018 -626 4055 -620Z M4329 -319C4329 -373 4292 -411 4239 -411C4199 -411 4135 -382 4076 -338C4012 -290 3967 -186 3967 -87C3967 -26 4001 13 4054 13C4082 13 4110 3 4156 -21C4206 -49 4239 -74 4257 -98C4297 -152 4329 -250 4329 -319ZM4252 -265C4252 -223 4238 -171 4213 -122C4185 -65 4149 -34 4111 -34C4070 -34 4044 -71 4044 -128C4044 -244 4117 -364 4187 -364C4227 -364 4252 -325 4252 -265Z M4999 -99 5006 -128C4921 -78 4907 -71 4894 -71C4885 -71 4879 -81 4879 -97C4879 -117 4885 -146 4902 -211C4934 -329 4950 -390 4950 -394C4950 -404 4942 -411 4929 -411C4908 -411 4839 -373 4714 -292L4748 -426C4772 -524 4782 -555 4795 -580C4809 -608 4830 -621 4857 -621C4870 -621 4878 -620 4917 -612L4960 -673C4942 -677 4934 -678 4919 -678C4864 -678 4835 -663 4762 -599C4710 -553 4702 -536 4671 -404L4575 9L4646 -20L4705 -253C4715 -260 4727 -267 4729 -268C4798 -312 4840 -334 4851 -334C4858 -334 4863 -327 4863 -318C4863 -306 4859 -287 4845 -233C4814 -113 4802 -55 4802 -28C4802 -16 4806 -4 4817 15C4872 -13 4944 -59 4999 -99Z M5454 -109 5449 -118C5431 -106 5362 -60 5347 -60C5334 -60 5333 -78 5333 -92C5333 -146 5384 -343 5408 -412C5394 -404 5337 -376 5325 -370L5274 -147C5272 -140 5252 -122 5250 -116C5233 -105 5164 -59 5147 -59C5130 -59 5126 -81 5126 -95C5126 -135 5157 -245 5174 -310C5180 -336 5192 -383 5192 -395C5192 -404 5188 -409 5179 -409C5161 -409 5052 -342 5023 -326L5021 -299C5041 -309 5074 -328 5091 -328C5101 -328 5104 -317 5104 -309C5104 -253 5051 -114 5051 -36C5051 -13 5057 14 5084 14C5109 14 5245 -79 5263 -92C5260 -72 5253 -27 5253 -8C5253 3 5260 13 5273 13C5299 13 5403 -58 5441 -87C5446 -90 5452 -107 5454 -109Z M5859 -335C5859 -381 5836 -411 5800 -411C5767 -411 5739 -396 5639 -325C5645 -348 5648 -364 5650 -371C5672 -479 5672 -479 5675 -488C5683 -520 5698 -559 5709 -578C5726 -607 5744 -616 5782 -616H5810H5825L5866 -674C5852 -676 5831 -677 5821 -677C5785 -677 5767 -666 5683 -597C5615 -542 5615 -542 5580 -386L5523 -139L5487 13L5497 17L5529 -10C5557 0 5578 5 5597 5C5617 5 5635 -1 5661 -17C5682 -31 5705 -44 5729 -58C5764 -77 5786 -99 5803 -131C5835 -188 5859 -276 5859 -335ZM5748 -152C5721 -85 5686 -52 5642 -52C5622 -52 5602 -58 5576 -71L5629 -284C5686 -326 5721 -344 5744 -344C5764 -344 5777 -325 5777 -295C5777 -255 5765 -195 5748 -152Z"/>
  </g>
</svg>